<svg xmlns="http://www.w3.org/2000/svg" viewBox="0 0 24 24" width="64" height="64">
  <!-- Glow halo -->
  <circle cx="12" cy="9" r="5.5" fill="#f0c040" fill-opacity="0.15" stroke="none"/>
  <!-- Lightbulb glass (on / lit) -->
  <path d="M8 9 a4 4 0 0 1 8 0 c0 2-1.2 3.5-2 4.5 H10 C9.2 12.5 8 11 8 9 z"
        fill="#f0c040" fill-opacity="0.35" stroke="#f0c040" stroke-width="1.5" stroke-linejoin="round"/>
  <!-- Filament (inner lines) -->
  <line x1="10.5" y1="10" x2="13.5" y2="10" stroke="#f0c040" stroke-width="1" stroke-linecap="round"/>
  <line x1="10.5" y1="11.5" x2="13.5" y2="11.5" stroke="#f0c040" stroke-width="1" stroke-linecap="round"/>
  <!-- Base lines -->
  <line x1="10" y1="14" x2="14" y2="14" stroke="#f0c040" stroke-width="1.4" stroke-linecap="round"/>
  <line x1="10.5" y1="16" x2="13.5" y2="16" stroke="#f0c040" stroke-width="1.4" stroke-linecap="round"/>
  <!-- Short rays -->
  <line x1="12" y1="3"  x2="12" y2="1.5" stroke="#f0c040" stroke-width="1.4" stroke-linecap="round"/>
  <line x1="17.5" y1="4.5" x2="18.5" y2="3.5" stroke="#f0c040" stroke-width="1.4" stroke-linecap="round"/>
  <line x1="19.5" y1="9"  x2="21"  y2="9"  stroke="#f0c040" stroke-width="1.4" stroke-linecap="round"/>
  <line x1="6.5"  y1="4.5" x2="5.5" y2="3.5" stroke="#f0c040" stroke-width="1.4" stroke-linecap="round"/>
  <line x1="4.5"  y1="9"  x2="3"   y2="9"  stroke="#f0c040" stroke-width="1.4" stroke-linecap="round"/>
</svg>
