<svg xmlns="http://www.w3.org/2000/svg" viewBox="0 0 24 24">
  <line x1="3" y1="18" x2="21" y2="18" stroke="#e0e0e0" stroke-width="1.2"/>
  <line x1="5" y1="14" x2="5" y2="18" stroke="#e0e0e0" stroke-width="1.0"/>
  <line x1="9" y1="14" x2="9" y2="18" stroke="#e0e0e0" stroke-width="1.0"/>
  <line x1="15" y1="14" x2="15" y2="18" stroke="#e0e0e0" stroke-width="1.0"/>
  <line x1="19" y1="14" x2="19" y2="18" stroke="#e0e0e0" stroke-width="1.0"/>
  <polygon points="5,16 3,17 5,18" fill="#4cc9f0"/>
  <polygon points="9,16 11,17 9,18" fill="#4cc9f0"/>
  <line x1="5" y1="17" x2="9" y2="17" stroke="#4cc9f0" stroke-width="1.0"/>
  <polygon points="15,16 13,17 15,18" fill="#4cc9f0"/>
  <polygon points="19,16 21,17 19,18" fill="#4cc9f0"/>
  <line x1="15" y1="17" x2="19" y2="17" stroke="#4cc9f0" stroke-width="1.0"/>
  <rect x="3" y="5" width="4" height="6" fill="none" stroke="#e0e0e0" stroke-width="1.0"/>
  <rect x="10" y="5" width="5" height="4" fill="none" stroke="#e0e0e0" stroke-width="1.0"/>
  <rect x="17" y="5" width="4" height="5" fill="none" stroke="#e0e0e0" stroke-width="1.0"/>
</svg>
